<?xml version="1.0" encoding="UTF-8"?>
<svg version="1.1" xmlns="http://www.w3.org/2000/svg" width="980" height="399">
<path d="M0 0 C4.06953542 1.67883167 6.95128208 4.47404658 10.1796875 7.41796875 C11.48108564 8.581496 12.78315486 9.74427316 14.0859375 10.90625 C14.70339844 11.46135254 15.32085937 12.01645508 15.95703125 12.58837891 C17.40070307 13.85977583 18.89438117 15.07408224 20.3984375 16.2734375 C22.6796875 18.10546875 22.6796875 18.10546875 24.6953125 20.12890625 C27.50407471 22.92661034 30.66823215 25.16797431 33.8515625 27.51953125 C34.45484375 28.04289062 35.058125 28.56625 35.6796875 29.10546875 C35.6796875 29.76546875 35.6796875 30.42546875 35.6796875 31.10546875 C36.3396875 31.10546875 36.9996875 31.10546875 37.6796875 31.10546875 C37.05678423 34.75871224 35.45213526 36.99941257 33.3046875 39.98046875 C25.59204577 51.9673966 25.78370663 67.25865077 24.6796875 81.10546875 C51.89072108 81.93797773 51.89072108 81.93797773 75.6796875 71.10546875 C76.6696875 69.62046875 76.6696875 69.62046875 77.6796875 68.10546875 C82.0313662 68.53150722 84.15179617 71.37764447 86.8671875 74.48046875 C87.58358398 75.27988892 87.58358398 75.27988892 88.31445312 76.09545898 C92.28340672 80.56053178 96.0761741 85.16062937 99.8046875 89.828125 C101.58263224 92.07706001 101.58263224 92.07706001 103.4296875 93.7890625 C104.6796875 95.10546875 104.6796875 95.10546875 104.6796875 97.10546875 C105.3396875 97.10546875 105.9996875 97.10546875 106.6796875 97.10546875 C108.1875 98.4609375 108.1875 98.4609375 109.8046875 100.29296875 C110.34351563 100.88464844 110.88234375 101.47632812 111.4375 102.0859375 C113.07968946 104.7557864 113.25711308 106.01508703 112.6796875 109.10546875 C111.09098284 111.17820866 109.57592469 112.90397715 107.7421875 114.73046875 C106.72801422 115.78540621 105.71633783 116.84274914 104.70703125 117.90234375 C103.94302002 118.69995117 103.94302002 118.69995117 103.16357422 119.51367188 C98.85821707 124.13212015 94.99754314 129.17556321 91.08203125 134.125 C89.98892475 135.48580605 88.84150004 136.80283044 87.6796875 138.10546875 C87.0196875 138.10546875 86.3596875 138.10546875 85.6796875 138.10546875 C85.5971875 138.70359375 85.5146875 139.30171875 85.4296875 139.91796875 C84.4353064 142.81824697 83.41134792 143.73963854 80.6796875 145.10546875 C77.61811638 144.3803598 75.65208098 143.08526886 73.1171875 141.23046875 C59.90391032 132.17379795 40.47031407 132.84500008 25.6796875 132.10546875 C26.0096875 162.13546875 26.3396875 192.16546875 26.6796875 223.10546875 C39.18824209 218.93595055 44.32062899 211.5620641 52.06640625 201.47265625 C54.52265259 198.27833513 57.08180108 195.18548544 59.6796875 192.10546875 C58.06724083 187.50733787 55.65578508 183.62775662 53.0546875 179.54296875 C52.38590576 178.49157715 52.38590576 178.49157715 51.70361328 177.41894531 C50.7949817 175.99355183 49.88467315 174.56922591 48.97265625 173.14599609 C47.79605401 171.28911514 46.6544545 169.4161005 45.5234375 167.53125 C40.62319189 159.62668715 36.82317155 156.26996608 27.6796875 154.10546875 C27.6796875 152.45546875 27.6796875 150.80546875 27.6796875 149.10546875 C41.5396875 149.10546875 55.3996875 149.10546875 69.6796875 149.10546875 C69.6796875 150.75546875 69.6796875 152.40546875 69.6796875 154.10546875 C67.0396875 154.76546875 64.3996875 155.42546875 61.6796875 156.10546875 C63.02417435 160.83240145 64.99030582 164.34068771 67.8046875 168.35546875 C71.6796875 173.89906306 71.6796875 173.89906306 71.6796875 176.10546875 C75.68905138 172.3272754 78.85239193 168.30962282 81.9921875 163.79296875 C82.44658203 163.14779297 82.90097656 162.50261719 83.36914062 161.83789062 C84.47704702 160.26349733 85.57899275 158.68491229 86.6796875 157.10546875 C83.7620375 155.16036875 82.05431465 154.65270558 78.6796875 154.10546875 C78.6796875 152.45546875 78.6796875 150.80546875 78.6796875 149.10546875 C88.9096875 149.10546875 99.1396875 149.10546875 109.6796875 149.10546875 C109.6796875 150.75546875 109.6796875 152.40546875 109.6796875 154.10546875 C107.7615625 154.50765625 107.7615625 154.50765625 105.8046875 154.91796875 C98.92894817 157.2134742 95.1308346 162.65124625 90.6796875 168.10546875 C89.84566406 169.10449219 89.01164063 170.10351562 88.15234375 171.1328125 C85.96786874 173.77046872 83.8068803 176.42146475 81.6796875 179.10546875 C81.05964844 179.74613281 80.43960938 180.38679687 79.80078125 181.046875 C78.38058734 183.13902896 78.38058734 183.13902896 79.203125 185.91015625 C80.92202582 189.629894 82.97360233 192.87137589 85.3046875 196.23046875 C86.20597811 197.55191357 87.10701628 198.87353061 88.0078125 200.1953125 C88.45705078 200.84999512 88.90628906 201.50467773 89.36914062 202.17919922 C90.59212025 203.97676055 91.79015012 205.78753349 92.9765625 207.609375 C93.66234375 208.65996094 94.348125 209.71054688 95.0546875 210.79296875 C95.66054688 211.72496094 96.26640625 212.65695313 96.890625 213.6171875 C99.90852504 217.81457248 102.6336596 220.38063373 107.4296875 222.35546875 C108.22890625 222.690625 109.028125 223.02578125 109.8515625 223.37109375 C110.45484375 223.6134375 111.058125 223.85578125 111.6796875 224.10546875 C111.6796875 225.42546875 111.6796875 226.74546875 111.6796875 228.10546875 C98.1496875 228.10546875 84.6196875 228.10546875 70.6796875 228.10546875 C70.6796875 226.45546875 70.6796875 224.80546875 70.6796875 223.10546875 C73.3196875 222.44546875 75.9596875 221.78546875 78.6796875 221.10546875 C72.67398042 210.29172561 72.67398042 210.29172561 65.6796875 200.10546875 C61.71153785 203.85912382 58.51172247 207.83471695 55.3671875 212.29296875 C54.91279297 212.92138672 54.45839844 213.54980469 53.99023438 214.19726562 C51.51139279 217.34153548 51.51139279 217.34153548 50.6796875 221.10546875 C54.6396875 222.09546875 54.6396875 222.09546875 58.6796875 223.10546875 C58.6796875 224.75546875 58.6796875 226.40546875 58.6796875 228.10546875 C47.7896875 228.10546875 36.8996875 228.10546875 25.6796875 228.10546875 C25.62126666 240.03417053 25.62126666 240.03417053 25.58203125 251.96289062 C25.57019492 256.84664395 25.55638254 261.73032051 25.52880859 266.61401367 C23.34298047 304.32564135 23.34298047 304.32564135 36.3515625 337.9140625 C37.6796875 340.10546875 37.6796875 340.10546875 37.66796875 342.12109375 C36.29525701 344.87736871 34.44861982 346.41400479 32.1171875 348.41796875 C31.21871094 349.1965625 30.32023438 349.97515625 29.39453125 350.77734375 C28.49863281 351.545625 27.60273437 352.31390625 26.6796875 353.10546875 C25.50599609 354.16507812 25.50599609 354.16507812 24.30859375 355.24609375 C23.60605469 355.8803125 22.90351562 356.51453125 22.1796875 357.16796875 C21.23609375 358.02068359 21.23609375 358.02068359 20.2734375 358.890625 C18.6796875 360.10546875 18.6796875 360.10546875 16.6796875 360.10546875 C16.4528125 360.72421875 16.2259375 361.34296875 15.9921875 361.98046875 C14.29105792 364.73467855 12.62592596 364.92697336 9.6796875 366.10546875 C8.97817598 367.42080285 8.31442825 368.75664467 7.6796875 370.10546875 C5.13359979 372.65155646 3.5192456 373.9615445 -0.0546875 374.57421875 C-4.72741571 373.90349221 -6.95359207 371.51632659 -10.3203125 368.35546875 C-11.63749297 367.16608183 -12.95521505 365.97729447 -14.2734375 364.7890625 C-14.94052734 364.1791748 -15.60761719 363.56928711 -16.29492188 362.94091797 C-19.49948091 360.03688291 -22.78298066 357.22749073 -26.0703125 354.41796875 C-26.94623047 353.6614502 -26.94623047 353.6614502 -27.83984375 352.88964844 C-30.26674163 350.80268838 -32.65299133 348.88368286 -35.3203125 347.10546875 C-35.3203125 346.44546875 -35.3203125 345.78546875 -35.3203125 345.10546875 C-36.3103125 344.77546875 -37.3003125 344.44546875 -38.3203125 344.10546875 C-37.94826229 339.88889973 -36.42203238 338.05865615 -33.66015625 334.9765625 C-24.73639681 322.51451943 -26.17615203 303.867821 -26.14331055 289.38989258 C-26.13673935 288.09853897 -26.13016815 286.80718536 -26.12339783 285.47669983 C-26.10267876 281.25531184 -26.09203812 277.03392468 -26.08203125 272.8125 C-26.07797403 271.34604056 -26.07385686 269.87958128 -26.06968117 268.41312218 C-26.05071405 261.52911443 -26.03645601 254.64511693 -26.0280692 247.76108819 C-26.01827593 239.8583522 -25.99186656 231.95589468 -25.95156831 224.05325681 C-25.92132753 217.90932678 -25.90659353 211.76547644 -25.90328819 205.62147349 C-25.90095044 201.96646832 -25.89215485 198.31176366 -25.86682701 194.65683937 C-25.83903251 190.58200265 -25.84340164 186.50778707 -25.8503418 182.43286133 C-25.83753174 181.24140503 -25.82472168 180.04994873 -25.81152344 178.8223877 C-25.85605789 171.62392194 -26.38045134 164.34549311 -30.3203125 158.10546875 C-33.86684054 156.27210776 -36.87392947 155.82434192 -40.83984375 155.69140625 C-41.76128174 155.6557959 -42.68271973 155.62018555 -43.63208008 155.58349609 C-44.78732178 155.54949707 -45.94256348 155.51549805 -47.1328125 155.48046875 C-50.8246875 155.35671875 -54.5165625 155.23296875 -58.3203125 155.10546875 C-58.3203125 164.67546875 -58.3203125 174.24546875 -58.3203125 184.10546875 C-55.7421875 183.91984375 -53.1640625 183.73421875 -50.5078125 183.54296875 C-49.69981201 183.50228271 -48.89181152 183.46159668 -48.05932617 183.41967773 C-45.76987266 183.25385275 -45.76987266 183.25385275 -42.3203125 182.10546875 C-40.24379417 178.7884268 -40.24379417 178.7884268 -39.3203125 175.10546875 C-38.9903125 174.11546875 -38.6603125 173.12546875 -38.3203125 172.10546875 C-36.3403125 172.10546875 -34.3603125 172.10546875 -32.3203125 172.10546875 C-32.3203125 182.00546875 -32.3203125 191.90546875 -32.3203125 202.10546875 C-34.3003125 202.10546875 -36.2803125 202.10546875 -38.3203125 202.10546875 C-38.49046875 201.39519531 -38.660625 200.68492187 -38.8359375 199.953125 C-39.07828125 199.03402344 -39.320625 198.11492187 -39.5703125 197.16796875 C-39.80234375 196.25144531 -40.034375 195.33492187 -40.2734375 194.390625 C-40.61890625 193.63652344 -40.964375 192.88242188 -41.3203125 192.10546875 C-44.75956282 190.83388615 -48.44059957 190.79704866 -52.0703125 190.54296875 C-53.24078125 190.45917969 -54.41125 190.37539062 -55.6171875 190.2890625 C-56.50921875 190.22847656 -57.40125 190.16789063 -58.3203125 190.10546875 C-58.2021469 194.19908981 -58.07790466 198.29247642 -57.94799805 202.38574219 C-57.90465404 203.77859465 -57.86297854 205.17150006 -57.82299805 206.56445312 C-57.76528318 208.56523526 -57.70109381 210.56582734 -57.63671875 212.56640625 C-57.60006104 213.77087402 -57.56340332 214.9753418 -57.52563477 216.21630859 C-57.50978263 219.04543242 -57.50978263 219.04543242 -56.3203125 221.10546875 C-53.51050577 221.79773907 -53.51050577 221.79773907 -50.2578125 222.23046875 C-48.60072266 222.48183594 -48.60072266 222.48183594 -46.91015625 222.73828125 C-46.05550781 222.85945312 -45.20085937 222.980625 -44.3203125 223.10546875 C-44.3203125 224.75546875 -44.3203125 226.40546875 -44.3203125 228.10546875 C-73.3603125 228.10546875 -102.4003125 228.10546875 -132.3203125 228.10546875 C-131.9903125 226.45546875 -131.6603125 224.80546875 -131.3203125 223.10546875 C-130.68222656 222.97269531 -130.04414063 222.83992187 -129.38671875 222.703125 C-128.14728516 222.43822266 -128.14728516 222.43822266 -126.8828125 222.16796875 C-126.05910156 221.99394531 -125.23539062 221.81992188 -124.38671875 221.640625 C-122.34370046 221.29793881 -122.34370046 221.29793881 -121.3203125 220.10546875 C-120.38496498 214.97506701 -120.17325062 209.94154671 -120.1875 204.7421875 C-120.18654327 203.95133255 -120.18558655 203.1604776 -120.18460083 202.34565735 C-120.1839232 200.67404094 -120.18574827 199.00242184 -120.18994141 197.33081055 C-120.19521653 194.83831459 -120.19002343 192.34600545 -120.18359375 189.85351562 C-120.17805187 181.56542553 -120.29834378 173.28139971 -120.640625 165 C-120.66260956 164.23435226 -120.68459412 163.46870453 -120.70724487 162.67985535 C-120.78974094 160.31945394 -120.78974094 160.31945394 -121.3203125 157.10546875 C-124.01361372 155.3099346 -125.4663726 154.67850414 -128.5078125 153.98046875 C-129.7659375 153.69171875 -131.0240625 153.40296875 -132.3203125 153.10546875 C-132.3203125 151.78546875 -132.3203125 150.46546875 -132.3203125 149.10546875 C-97.0103125 149.10546875 -61.7003125 149.10546875 -25.3203125 149.10546875 C-25.3203125 143.49546875 -25.3203125 137.88546875 -25.3203125 132.10546875 C-54.51338223 131.26004895 -54.51338223 131.26004895 -79.8828125 143.35546875 C-81.089375 144.71671875 -81.089375 144.71671875 -82.3203125 146.10546875 C-83.6403125 145.44546875 -84.9603125 144.78546875 -86.3203125 144.10546875 C-86.3203125 143.44546875 -86.3203125 142.78546875 -86.3203125 142.10546875 C-86.9803125 142.10546875 -87.6403125 142.10546875 -88.3203125 142.10546875 C-89.6530313 140.63856316 -90.90945119 139.10224374 -92.1328125 137.54296875 C-96.52793868 132.04371849 -101.08484579 126.7129754 -105.71411133 121.40991211 C-107.25322469 119.64495187 -108.78699189 117.87546119 -110.3203125 116.10546875 C-110.80798096 115.55125244 -111.29564941 114.99703613 -111.7980957 114.42602539 C-113.92785487 111.95996848 -115.25371411 110.3900255 -116.0078125 107.16796875 C-115.03777526 102.84689377 -112.63043483 100.00396965 -109.3203125 97.10546875 C-108.6603125 97.10546875 -108.0003125 97.10546875 -107.3203125 97.10546875 C-107.0728125 96.32171875 -106.8253125 95.53796875 -106.5703125 94.73046875 C-105.11106747 91.66605418 -104.27016294 91.48821114 -101.3203125 90.10546875 C-100.64457578 88.77670914 -99.97927218 87.44262781 -99.3203125 86.10546875 C-98.31975987 84.84260907 -97.27410898 83.6146802 -96.1953125 82.41796875 C-95.27685547 81.39123047 -95.27685547 81.39123047 -94.33984375 80.34375 C-93.67339844 79.60511719 -93.00695312 78.86648437 -92.3203125 78.10546875 C-90.84033329 76.43952357 -89.36115275 74.7728685 -87.8828125 73.10546875 C-86.6956266 71.77185574 -85.50824261 70.4384189 -84.3203125 69.10546875 C-81.03397417 69.70363998 -79.35566787 70.79622008 -76.8203125 72.91796875 C-62.6766092 82.45407989 -41.58083939 80.88293204 -25.3203125 81.10546875 C-25.33929609 56.56172872 -25.33929609 56.56172872 -36.6953125 35.79296875 C-37.2315625 35.23609375 -37.7678125 34.67921875 -38.3203125 34.10546875 C-38.16848524 31.04911992 -37.21934794 29.99791567 -35.10546875 27.74609375 C-34.20699219 26.9571875 -33.30851562 26.16828125 -32.3828125 25.35546875 C-31.48691406 24.55625 -30.59101563 23.75703125 -29.66796875 22.93359375 C-27.3203125 21.10546875 -27.3203125 21.10546875 -25.3203125 21.10546875 C-25.0934375 20.533125 -24.8665625 19.96078125 -24.6328125 19.37109375 C-22.95595888 16.476525 -20.9434648 14.9271629 -18.3203125 12.85546875 C-15.35400239 10.5120059 -12.4065707 8.18006387 -9.546875 5.70703125 C-8.68835938 4.97226562 -7.82984375 4.2375 -6.9453125 3.48046875 C-6.17445313 2.80757812 -5.40359375 2.1346875 -4.609375 1.44140625 C-2.3203125 0.10546875 -2.3203125 0.10546875 0 0 Z M-101.3203125 157.10546875 C-101.63454809 159.79501567 -101.63454809 159.79501567 -101.5949707 162.97631836 C-101.60450272 164.20777084 -101.61403473 165.43922333 -101.62385559 166.70799255 C-101.62359417 168.05793282 -101.62265714 169.40787311 -101.62109375 170.7578125 C-101.62497949 172.13782379 -101.62931391 173.51783388 -101.63407898 174.89784241 C-101.64154665 177.79220453 -101.64124614 180.68644469 -101.63598633 183.58081055 C-101.63019254 187.29117113 -101.64711719 191.00103238 -101.670331 194.71131039 C-101.68505899 197.56204653 -101.68594133 200.41266219 -101.68282127 203.26342964 C-101.68333502 204.63138378 -101.68858277 205.99934457 -101.69863319 207.36726189 C-101.71095992 209.27987745 -101.7022765 211.19259366 -101.69262695 213.10522461 C-101.69325638 214.1939537 -101.6938858 215.2826828 -101.6945343 216.40440369 C-101.54299715 219.12225384 -101.54299715 219.12225384 -99.93229675 220.93043518 C-95.9618651 223.82462628 -90.55336908 224.23541691 -85.76953125 223.95703125 C-81.0326109 223.20762665 -81.0326109 223.20762665 -77.72618103 219.91322327 C-76.13380691 216.73298589 -75.9349128 214.72383451 -75.91625977 211.18530273 C-75.89723351 209.43339882 -75.89723351 209.43339882 -75.87782288 207.64610291 C-75.88075851 206.39390457 -75.88369415 205.14170624 -75.88671875 203.8515625 C-75.8814769 202.55855728 -75.87623505 201.26555206 -75.87083435 199.93336487 C-75.86191937 197.20230317 -75.86430891 194.47153418 -75.87426758 191.74047852 C-75.88577577 188.2442284 -75.86551126 184.74898553 -75.83635044 181.2528677 C-75.81358008 177.91071235 -75.8204544 174.56879359 -75.82421875 171.2265625 C-75.81298477 169.97233994 -75.80175079 168.71811737 -75.79017639 167.42588806 C-75.79955734 166.26110428 -75.80893829 165.0963205 -75.81860352 163.89624023 C-75.81876968 162.87207504 -75.81893585 161.84790985 -75.81910706 160.79270935 C-76.44977997 157.41132178 -77.68575755 156.24168588 -80.3203125 154.10546875 C-86.45601045 151.47588392 -96.57720695 152.3623632 -101.3203125 157.10546875 Z " fill="#FFE765" transform="translate(491.3203125,11.89453125)"/>
<path d="M0 0 C36.63 0 73.26 0 111 0 C111.62145201 7.45742409 112.14798191 14.56801987 112 22 C110.35 22 108.7 22 107 22 C106.54560547 20.62714844 106.54560547 20.62714844 106.08203125 19.2265625 C105.66308594 18.03804687 105.24414062 16.84953125 104.8125 15.625 C104.40644531 14.44164062 104.00039063 13.25828125 103.58203125 12.0390625 C102.31213644 8.88701139 102.31213644 8.88701139 99.74609375 7.8359375 C96.88293243 6.9643635 94.46704829 6.68604631 91.48046875 6.5859375 C90.55903076 6.55032715 89.63759277 6.5147168 88.68823242 6.47802734 C87.53299072 6.44402832 86.37774902 6.4100293 85.1875 6.375 C81.495625 6.25125 77.80375 6.1275 74 6 C74 15.57 74 25.14 74 35 C76.578125 34.814375 79.15625 34.62875 81.8125 34.4375 C83.02450073 34.37647095 83.02450073 34.37647095 84.26098633 34.31420898 C86.55043984 34.148384 86.55043984 34.148384 90 33 C92.07651833 29.68295805 92.07651833 29.68295805 93 26 C93.495 24.515 93.495 24.515 94 23 C95.98 23 97.96 23 100 23 C100 32.9 100 42.8 100 53 C98.02 53 96.04 53 94 53 C93.82984375 52.28972656 93.6596875 51.57945312 93.484375 50.84765625 C93.12085938 49.46900391 93.12085938 49.46900391 92.75 48.0625 C92.51796875 47.14597656 92.2859375 46.22945312 92.046875 45.28515625 C91.70140625 44.53105469 91.3559375 43.77695313 91 43 C87.56074968 41.7284174 83.87971293 41.69157991 80.25 41.4375 C79.07953125 41.35371094 77.9090625 41.26992187 76.703125 41.18359375 C75.36507812 41.09271484 75.36507812 41.09271484 74 41 C74.1181656 45.09362106 74.24240784 49.18700767 74.37231445 53.28027344 C74.41565846 54.6731259 74.45733396 56.06603131 74.49731445 57.45898438 C74.55502932 59.45976651 74.61921869 61.46035859 74.68359375 63.4609375 C74.72025146 64.66540527 74.75690918 65.86987305 74.79467773 67.11083984 C74.81052987 69.93996367 74.81052987 69.93996367 76 72 C78.80980673 72.69227032 78.80980673 72.69227032 82.0625 73.125 C83.16722656 73.29257813 84.27195312 73.46015625 85.41015625 73.6328125 C86.26480469 73.75398438 87.11945313 73.87515625 88 74 C88 75.65 88 77.3 88 79 C58.96 79 29.92 79 0 79 C0.33 77.35 0.66 75.7 1 74 C1.63808594 73.86722656 2.27617187 73.73445313 2.93359375 73.59765625 C4.17302734 73.33275391 4.17302734 73.33275391 5.4375 73.0625 C6.67306641 72.80146484 6.67306641 72.80146484 7.93359375 72.53515625 C9.97661204 72.19247006 9.97661204 72.19247006 11 71 C11.93534752 65.86959826 12.14706188 60.83607796 12.1328125 55.63671875 C12.13376923 54.8458638 12.13472595 54.05500885 12.13571167 53.2401886 C12.1363893 51.56857219 12.13456423 49.89695309 12.13037109 48.2253418 C12.12509597 45.73284584 12.13028907 43.2405367 12.13671875 40.74804688 C12.14226063 32.45995678 12.02196872 24.17593096 11.6796875 15.89453125 C11.65770294 15.12888351 11.63571838 14.36323578 11.61306763 13.5743866 C11.53057156 11.21398519 11.53057156 11.21398519 11 8 C8.30669878 6.20446585 6.8539399 5.57303539 3.8125 4.875 C2.554375 4.58625 1.29625 4.2975 0 4 C0 2.68 0 1.36 0 0 Z M31 8 C30.68576441 10.68954692 30.68576441 10.68954692 30.7253418 13.87084961 C30.71580978 15.10230209 30.70627777 16.33375458 30.69645691 17.6025238 C30.69671833 18.95246407 30.69765536 20.30240436 30.69921875 21.65234375 C30.69533301 23.03235504 30.69099859 24.41236513 30.68623352 25.79237366 C30.67876585 28.68673578 30.67906636 31.58097594 30.68432617 34.4753418 C30.69011996 38.18570238 30.67319531 41.89556363 30.6499815 45.60584164 C30.63525351 48.45657778 30.63437117 51.30719344 30.63749123 54.15796089 C30.63697748 55.52591503 30.63172973 56.89387582 30.62167931 58.26179314 C30.60935258 60.1744087 30.618036 62.08712491 30.62768555 63.99975586 C30.62705612 65.08848495 30.6264267 66.17721405 30.6257782 67.29893494 C30.77731535 70.01678509 30.77731535 70.01678509 32.38801575 71.82496643 C36.3584474 74.71915753 41.76694342 75.12994816 46.55078125 74.8515625 C51.2877016 74.1021579 51.2877016 74.1021579 54.59413147 70.80775452 C56.18650559 67.62751714 56.3853997 65.61836576 56.40405273 62.07983398 C56.42307899 60.32793007 56.42307899 60.32793007 56.44248962 58.54063416 C56.43955399 57.28843582 56.43661835 56.03623749 56.43359375 54.74609375 C56.4388356 53.45308853 56.44407745 52.16008331 56.44947815 50.82789612 C56.45839313 48.09683442 56.45600359 45.36606543 56.44604492 42.63500977 C56.43453673 39.13875965 56.45480124 35.64351678 56.48396206 32.14739895 C56.50673242 28.8052436 56.4998581 25.46332484 56.49609375 22.12109375 C56.50732773 20.86687119 56.51856171 19.61264862 56.53013611 18.32041931 C56.52075516 17.15563553 56.51137421 15.99085175 56.50170898 14.79077148 C56.50154282 13.76660629 56.50137665 12.7424411 56.50120544 11.6872406 C55.87053253 8.30585303 54.63455495 7.13621713 52 5 C45.86430205 2.37041517 35.74310555 3.25689445 31 8 Z " fill="#FFFEFE" transform="translate(359,161)"/>
<path d="M0 0 C14.19 0 28.38 0 43 0 C43 1.65 43 3.3 43 5 C42.37351562 5.13277344 41.74703125 5.26554688 41.1015625 5.40234375 C40.28429687 5.57894531 39.46703125 5.75554687 38.625 5.9375 C37.81289063 6.11152344 37.00078125 6.28554687 36.1640625 6.46484375 C33.970537 6.92330693 33.970537 6.92330693 32 8 C31.67 17.24 31.34 26.48 31 36 C40.57 36 50.14 36 60 36 C59.67 26.76 59.34 17.52 59 8 C55.37 7.01 51.74 6.02 48 5 C48 3.35 48 1.7 48 0 C62.19 0 76.38 0 91 0 C90.67 1.65 90.34 3.3 90 5 C89.37351562 5.09796875 88.74703125 5.1959375 88.1015625 5.296875 C87.28429687 5.44640625 86.46703125 5.5959375 85.625 5.75 C84.40683594 5.95882812 84.40683594 5.95882812 83.1640625 6.171875 C80.90141075 6.79913904 80.90141075 6.79913904 79.87893677 8.67340088 C78.77690064 11.59055758 78.76005987 13.93448781 78.77294922 17.05371094 C78.77310028 18.27467468 78.77325134 19.49563843 78.77340698 20.75360107 C78.78372955 22.06725647 78.79405212 23.38091187 78.8046875 24.734375 C78.80841958 26.09629102 78.81126563 27.45820973 78.81326294 28.82012939 C78.82088406 32.39747586 78.84051931 35.97465885 78.8626709 39.55194092 C78.88316222 43.2051777 78.89227167 46.85844101 78.90234375 50.51171875 C78.92376681 57.67456217 78.95893636 64.83723732 79 72 C84.445 72.99 84.445 72.99 90 74 C90.33 75.65 90.66 77.3 91 79 C76.81 79 62.62 79 48 79 C48 77.35 48 75.7 48 74 C53.445 73.01 53.445 73.01 59 72 C59.33 62.1 59.66 52.2 60 42 C50.43 42 40.86 42 31 42 C31.495 56.355 31.495 56.355 32 71 C35.9327865 72.5731146 38.89583836 73.42732628 43 74 C43 75.65 43 77.3 43 79 C28.81 79 14.62 79 0 79 C0 77.35 0 75.7 0 74 C3.63 73.01 7.26 72.02 11 71 C11 50.21 11 29.42 11 8 C7.3441622 6.53766488 3.7372512 5.21677946 0 4 C0 2.68 0 1.36 0 0 Z " fill="#FFFFFF" transform="translate(705,161)"/>
<path d="M0 0 C7.40141002 -0.10173363 14.80263853 -0.1716057 22.20458984 -0.21972656 C24.72060891 -0.23979516 27.23658161 -0.2670563 29.75244141 -0.30175781 C33.37674428 -0.35048312 37.00042841 -0.37301722 40.625 -0.390625 C41.74302002 -0.41127014 42.86104004 -0.43191528 44.01293945 -0.45318604 C50.83337334 -0.4551291 55.19531129 0.3468756 61 4 C65.39241289 8.39241289 66.81043931 12.68735964 67.3125 18.8125 C67.0759316 26.54532972 64.34701382 32.52567632 59 38 C57.34452187 39.34719995 55.6794668 40.6828262 54 42 C56.01178119 45.47750748 58.03858795 48.94576389 60.07910156 52.40649414 C60.76970779 53.58249144 61.45631918 54.76084498 62.13867188 55.94165039 C67.87265613 66.49180609 67.87265613 66.49180609 77.5546875 72.92578125 C78.32039063 73.05339844 79.08609375 73.18101562 79.875 73.3125 C80.65617187 73.45300781 81.43734375 73.59351563 82.2421875 73.73828125 C83.11230469 73.86783203 83.11230469 73.86783203 84 74 C84.33 75.65 84.66 77.3 85 79 C74.11 79 63.22 79 52 79 C45.75 65.5 45.75 65.5 43.80371094 61.29101562 C42.7188008 58.95106632 41.62764084 56.61484646 40.52929688 54.28125 C39.61268491 52.31457299 38.71622792 50.33802739 37.86132812 48.34375 C36.84687351 45.93793436 36.84687351 45.93793436 35 43 C33.35 42.67 31.7 42.34 30 42 C30.33 51.9 30.66 61.8 31 72 C34.63 72.66 38.26 73.32 42 74 C42.33 75.65 42.66 77.3 43 79 C28.81 79 14.62 79 0 79 C0 77.35 0 75.7 0 74 C5.445 73.01 5.445 73.01 11 72 C11.06942922 63.69001013 11.12277489 55.3801409 11.15543652 47.06993294 C11.17111039 43.21139425 11.19237955 39.3530536 11.22631836 35.49462891 C11.25885119 31.77286704 11.27684004 28.05129597 11.28463173 24.32940292 C11.29018625 22.9075711 11.30103261 21.48575004 11.31719017 20.06399918 C11.33888117 18.07678613 11.34022469 16.08938217 11.34057617 14.10205078 C11.34723801 12.96953888 11.35389984 11.83702698 11.36076355 10.67019653 C11.24171158 9.78903168 11.12265961 8.90786682 11 8 C8.30669878 6.20446585 6.8539399 5.57303539 3.8125 4.875 C2.554375 4.58625 1.29625 4.2975 0 4 C0 2.68 0 1.36 0 0 Z M30 7 C30 16.57 30 26.14 30 36 C39.75779622 35.51196402 39.75779622 35.51196402 46 30 C48.77325811 24.8152131 48.11414296 19.59880243 47 14 C45.43848569 9.92271263 44.38532271 9.19604138 40.4375 7.1875 C35.78133141 5.5790054 35.12831766 5.97433647 30 7 Z " fill="#FFFFFF" transform="translate(106,161)"/>
<path d="M0 0 C7.36889953 5.99478097 12.20347734 13.83817206 13.6875 23.25 C14.65335951 39.3371026 12.73036817 52.54749955 2.02734375 65.21484375 C-4.76550141 72.53378626 -13.45042566 76.16098796 -23.38671875 76.5859375 C-36.30130795 76.79767084 -47.24368988 76.7375212 -57.6875 68.25 C-65.8624694 60.31198623 -69.38749206 50.81993029 -69.60522461 39.68432617 C-69.69948238 25.69810169 -68.44187916 14.70094675 -58.3125 4.25 C-43.34875325 -10.25332377 -17.08059895 -11.64152554 0 0 Z M-40.078125 3.625 C-48.47546584 12.44644897 -49.59079532 25.01707782 -49.45703125 36.59375 C-49.03273525 47.3272921 -47.07366583 58.76453352 -38.9453125 66.50390625 C-34.23074304 69.6306311 -28.61017396 70.78385616 -22.99609375 69.875 C-16.8572652 67.82484094 -13.03557484 64.05901956 -10.125 58.3125 C-4.42420502 44.26907821 -4.90088294 25.36634992 -10.3125 11.25 C-13.23998514 5.90604044 -16.43191526 2.29020287 -22.3125 0.25 C-28.81218854 -1.46689886 -34.72693176 -0.54230093 -40.078125 3.625 Z " fill="#FFFFFF" transform="translate(869.3125,165.75)"/>
<path d="M0 0 C13.86 0 27.72 0 42 0 C42 1.65 42 3.3 42 5 C39.36 5.66 36.72 6.32 34 7 C35.34448685 11.7269327 37.31061832 15.23521896 40.125 19.25 C44 24.79359431 44 24.79359431 44 27 C48.00936388 23.22180665 51.17270443 19.20415407 54.3125 14.6875 C54.76689453 14.04232422 55.22128906 13.39714844 55.68945312 12.73242188 C56.79735952 11.15802858 57.89930525 9.57944354 59 8 C56.08235 6.0549 54.37462715 5.54723683 51 5 C51 3.35 51 1.7 51 0 C61.23 0 71.46 0 82 0 C82 1.65 82 3.3 82 5 C80.72125 5.268125 79.4425 5.53625 78.125 5.8125 C71.24926067 8.10800545 67.4511471 13.5457775 63 19 C62.16597656 19.99902344 61.33195313 20.99804688 60.47265625 22.02734375 C58.28818124 24.66499997 56.1271928 27.315996 54 30 C53.37996094 30.64066406 52.75992188 31.28132813 52.12109375 31.94140625 C50.70089984 34.03356021 50.70089984 34.03356021 51.5234375 36.8046875 C53.24233832 40.52442525 55.29391483 43.76590714 57.625 47.125 C58.52629061 48.44644482 59.42732878 49.76806186 60.328125 51.08984375 C60.77736328 51.74452637 61.22660156 52.39920898 61.68945312 53.07373047 C62.91243275 54.8712918 64.11046262 56.68206474 65.296875 58.50390625 C65.98265625 59.55449219 66.6684375 60.60507813 67.375 61.6875 C67.98085938 62.61949219 68.58671875 63.55148438 69.2109375 64.51171875 C72.22883754 68.70910373 74.9539721 71.27516498 79.75 73.25 C80.94882812 73.75273437 80.94882812 73.75273437 82.171875 74.265625 C82.77515625 74.50796875 83.3784375 74.7503125 84 75 C84 76.32 84 77.64 84 79 C70.47 79 56.94 79 43 79 C43 77.35 43 75.7 43 74 C46.96 73.01 46.96 73.01 51 72 C44.99429292 61.18625686 44.99429292 61.18625686 38 51 C34.03185035 54.75365507 30.83203497 58.7292482 27.6875 63.1875 C27.23310547 63.81591797 26.77871094 64.44433594 26.31054688 65.09179688 C23.83170529 68.23606673 23.83170529 68.23606673 23 72 C25.64 72.66 28.28 73.32 31 74 C31 75.65 31 77.3 31 79 C20.11 79 9.22 79 -2 79 C-1.67 77.35 -1.34 75.7 -1 74 C-0.443125 73.87625 0.11375 73.7525 0.6875 73.625 C11.82903316 70.61377482 17.67367173 61.11139315 24.38671875 52.3671875 C26.84296509 49.17286638 29.40211358 46.08001669 32 43 C30.38755333 38.40186912 27.97609758 34.52228787 25.375 30.4375 C24.92914551 29.73657227 24.48329102 29.03564453 24.02392578 28.31347656 C23.1152942 26.88808308 22.20498565 25.46375716 21.29296875 24.04052734 C20.11636651 22.18364639 18.974767 20.31063175 17.84375 18.42578125 C12.94350439 10.5212184 9.14348405 7.16449733 0 5 C0 3.35 0 1.7 0 0 Z " fill="#FFFFFF" transform="translate(519,161)"/>
<path d="M0 0 C14.19 0 28.38 0 43 0 C42.67 1.65 42.34 3.3 42 5 C41.04287109 5.19916016 41.04287109 5.19916016 40.06640625 5.40234375 C39.24011719 5.57894531 38.41382813 5.75554687 37.5625 5.9375 C36.73878906 6.11152344 35.91507813 6.28554687 35.06640625 6.46484375 C33.02338796 6.80752994 33.02338796 6.80752994 32 8 C31.89114871 9.53313087 31.85095836 11.07121166 31.83886719 12.6081543 C31.82925964 13.58975021 31.8196521 14.57134613 31.80975342 15.58268738 C31.8033786 17.18724541 31.8033786 17.18724541 31.796875 18.82421875 C31.78832489 20.46545464 31.78832489 20.46545464 31.77960205 22.1398468 C31.77013284 24.46260608 31.76361048 26.7853789 31.75976562 29.1081543 C31.7500886 32.6550262 31.71909455 36.20131185 31.6875 39.74804688 C31.68096741 42.00260072 31.67571795 44.25715872 31.671875 46.51171875 C31.6595282 47.57130295 31.6471814 48.63088715 31.63446045 49.72257996 C31.65492109 56.52227651 32.23932219 61.23932219 37.25 66.25 C43.6506255 70.32312532 49.76174616 70.59171874 57 69 C61.03248708 67.54528971 63.5275355 65.74019439 65.875 62.0625 C67.47659659 57.70259818 68.12601873 53.75295042 68.11352539 49.11791992 C68.11344986 48.17732224 68.11337433 47.23672455 68.11329651 46.2676239 C68.10813522 45.2653627 68.10297394 44.2631015 68.09765625 43.23046875 C68.0962413 42.19432938 68.09482635 41.15819 68.09336853 40.09065247 C68.08778242 36.78957196 68.07523242 33.48855992 68.0625 30.1875 C68.05748321 27.94596452 68.05292061 25.70442798 68.04882812 23.46289062 C68.03781753 17.97523414 68.02056239 12.48762867 68 7 C63.05 6.01 63.05 6.01 58 5 C57.505 2.525 57.505 2.525 57 0 C67.89 0 78.78 0 90 0 C90 1.65 90 3.3 90 5 C86.7 5.66 83.4 6.32 80 7 C79.96241577 8.51013672 79.96241577 8.51013672 79.92407227 10.05078125 C79.82827039 13.86791879 79.72850793 17.68494517 79.62768555 21.50195312 C79.58497672 23.13864501 79.54327287 24.7753635 79.50268555 26.41210938 C79.29192993 34.88396496 79.03923735 43.35109125 78.55859375 51.8125 C78.48825928 53.05644531 78.4179248 54.30039063 78.34545898 55.58203125 C77.43369551 64.60301263 74.50565016 70.39022843 67.70703125 76.34375 C60.53863127 80.72961088 53.3985191 81.52779566 45.125 81.4375 C44.15554443 81.42992676 43.18608887 81.42235352 42.18725586 81.41455078 C32.57231756 81.19292269 24.51351427 79.43720976 17.3671875 72.6328125 C11.11656472 65.16778301 11.83144263 54.75996601 11.68359375 45.59765625 C11.66281265 44.51995468 11.64203156 43.44225311 11.62062073 42.33189392 C11.55553839 38.90882388 11.49643327 35.48568088 11.4375 32.0625 C11.39427545 29.73371659 11.35065993 27.4049404 11.30664062 25.07617188 C11.19989965 19.38419041 11.09805853 13.69213731 11 8 C7.36977984 6.52812198 3.72547711 5.21294604 0 4 C0 2.68 0 1.36 0 0 Z " fill="#FFFFFF" transform="translate(183,161)"/>
<path d="M0 0 C7.56219001 -0.07621816 15.12428051 -0.12867069 22.68676758 -0.16479492 C25.2580943 -0.17985844 27.82939543 -0.2003132 30.40063477 -0.22631836 C34.10178962 -0.26280761 37.802604 -0.27975121 41.50390625 -0.29296875 C43.22148888 -0.31619453 43.22148888 -0.31619453 44.97377014 -0.33988953 C51.96042588 -0.34135458 57.49621253 -0.07104878 62.9609375 4.71875 C63.42757812 5.3065625 63.89421875 5.894375 64.375 6.5 C64.85710937 7.0878125 65.33921875 7.675625 65.8359375 8.28125 C69.30265076 13.39988703 68.57629553 20.11642472 68 26 C66.07739919 32.5943411 62.72697316 36.91154258 57.16015625 40.84375 C51.28339274 43.9893594 46.12652575 44.25874703 39.625 44.125 C35.355625 44.063125 35.355625 44.063125 31 44 C31.33 53.24 31.66 62.48 32 72 C36.29 72.66 40.58 73.32 45 74 C45 75.65 45 77.3 45 79 C30.15 79 15.3 79 0 79 C0.33 77.35 0.66 75.7 1 74 C1.62648438 73.91363281 2.25296875 73.82726562 2.8984375 73.73828125 C3.71570313 73.59777344 4.53296875 73.45726562 5.375 73.3125 C6.18710937 73.18488281 6.99921875 73.05726563 7.8359375 72.92578125 C10.19585294 72.18822006 10.19585294 72.18822006 11.12106323 69.82185364 C12.09408447 66.69793889 12.24081509 64.1935842 12.22705078 60.92456055 C12.22689972 59.72369308 12.22674866 58.52282562 12.22659302 57.28556824 C12.21110916 55.35563774 12.21110916 55.35563774 12.1953125 53.38671875 C12.19157912 52.04865226 12.18873368 50.71058303 12.18673706 49.37251282 C12.17912616 45.86258301 12.15949982 42.35282055 12.1373291 38.84295654 C12.11681564 35.25665551 12.10772362 31.67032726 12.09765625 28.08398438 C12.07625127 21.0559142 12.04109007 14.02798238 12 7 C8.37 6.34 4.74 5.68 1 5 C0.67 3.35 0.34 1.7 0 0 Z M31 7 C31 17.23 31 27.46 31 38 C40.75036187 37.48709954 40.75036187 37.48709954 47 32 C49.82308964 27.50872103 49.51258323 22.13384145 49 17 C48.09638526 13.2090538 46.77582757 10.62904938 43.6875 8.125 C39.01876155 6.17064437 35.93578922 5.76605269 31 7 Z " fill="#FFFFFF" transform="translate(887,161)"/>
<path d="M0 0 C1.32257812 -0.01740234 1.32257812 -0.01740234 2.671875 -0.03515625 C3.99058594 -0.02935547 3.99058594 -0.02935547 5.3359375 -0.0234375 C6.11243652 -0.02005371 6.88893555 -0.01666992 7.68896484 -0.01318359 C12.1079722 0.571069 16.3555247 2.09415741 20.625 3.375 C20.625 10.305 20.625 17.235 20.625 24.375 C18.315 24.375 16.005 24.375 13.625 24.375 C13.45484375 23.71113281 13.2846875 23.04726562 13.109375 22.36328125 C11.23068972 15.08869439 11.23068972 15.08869439 6.625 9.375 C2.23871607 7.53531587 -1.77032692 6.77457053 -6.3125 8.4375 C-9.43454268 10.11389129 -9.43454268 10.11389129 -10.875 12.6875 C-11.67968478 17.0126807 -11.22378102 20.00664854 -8.89453125 23.76171875 C-5.4596917 27.32436628 -1.60615143 29.05391773 2.8125 31.1875 C19.94974215 39.86937702 19.94974215 39.86937702 23.6875 48.25 C26.1773268 56.88817461 24.75592685 64.48149064 20.62890625 72.25 C17.19994409 77.75532333 12.00308569 81.04877426 5.82128906 82.92138672 C1.26909843 83.86157905 -3.43167869 83.60269622 -8.0625 83.625 C-9.11373047 83.645625 -10.16496094 83.66625 -11.24804688 83.6875 C-12.80168945 83.69523437 -12.80168945 83.69523437 -14.38671875 83.703125 C-15.31959717 83.7124707 -16.25247559 83.72181641 -17.21362305 83.73144531 C-20.375 83.375 -20.375 83.375 -29.375 80.375 C-29.375 72.785 -29.375 65.195 -29.375 57.375 C-26.735 57.375 -24.095 57.375 -21.375 57.375 C-21.09785156 58.27863281 -20.82070313 59.18226563 -20.53515625 60.11328125 C-20.17292969 61.29277344 -19.81070313 62.47226563 -19.4375 63.6875 C-19.07785156 64.85925781 -18.71820312 66.03101563 -18.34765625 67.23828125 C-17.40207521 71.50586575 -17.40207521 71.50586575 -14.58984375 74.39453125 C-8.71322496 76.44076387 -5.19918966 76.7441619 0.625 74.375 C3.3020747 72.16641337 4.42049393 70.67020514 4.96484375 67.22265625 C5.16782845 62.34290416 4.66349338 59.35277867 1.625 55.375 C-0.56315825 53.89820659 -2.61745582 52.65422189 -4.9375 51.4375 C-6.19947917 50.74266028 -7.46119639 50.04734457 -8.72265625 49.3515625 C-9.93970532 48.69197186 -11.15712949 48.03307269 -12.375 47.375 C-19.92260049 43.25447243 -27.13833776 39.24915772 -29.8125 30.5625 C-31.01953861 24.06209413 -30.55225118 17.82599314 -27.1875 12.0625 C-20.2370416 2.21270752 -11.42055983 -0.14896382 0 0 Z " fill="#FFFFFF" transform="translate(677.375,158.625)"/>
<path d="M0 0 C1.03713135 0.00394775 2.0742627 0.00789551 3.14282227 0.01196289 C24.27796049 0.40296049 24.27796049 0.40296049 29.3125 5.4375 C29.39976223 7.21821246 29.41949041 9.0023314 29.41015625 10.78515625 C29.40532227 12.40454102 29.40532227 12.40454102 29.40039062 14.05664062 C29.38782227 15.76110352 29.38782227 15.76110352 29.375 17.5 C29.37048828 18.64017578 29.36597656 19.78035156 29.36132812 20.95507812 C29.34949747 23.78260351 29.3330141 26.6100264 29.3125 29.4375 C27.0025 29.4375 24.6925 29.4375 22.3125 29.4375 C21.879375 28.261875 21.44625 27.08625 21 25.875 C20.7215625 25.14539063 20.443125 24.41578125 20.15625 23.6640625 C19.41270372 21.70192648 18.70360982 19.72680855 18 17.75 C15.30106258 12.45208581 12.10394248 10.09436224 6.5625 8.0625 C-0.46248364 6.66822844 -7.6108601 7.56134842 -13.87109375 11.08984375 C-20.23692978 15.81288338 -23.52430384 22.74101874 -24.6875 30.4375 C-25.66427346 42.60646939 -25.63860553 54.80500955 -17.54296875 64.6796875 C-12.17031037 69.76957438 -5.50150527 72.11885574 1.80859375 72.5078125 C9.02591629 72.30514198 14.8831635 70.2881874 21.328125 67.19140625 C23.94079154 66.19879869 25.72820824 66.437129 28.3125 67.4375 C28.6425 69.0875 28.9725 70.7375 29.3125 72.4375 C14.07642896 82.69254781 -2.14921152 86.18798701 -20.30078125 82.75390625 C-30.13276946 79.40240815 -37.88224748 72.79515845 -42.875 63.6875 C-48.55525888 51.54508426 -47.80028871 37.91768644 -43.6875 25.4375 C-40.22431299 16.20233463 -34.03467183 9.84512757 -25.703125 4.76171875 C-17.29070238 1.0676627 -9.12961055 -0.0900092 0 0 Z " fill="#FFFFFF" transform="translate(323.6875,158.5625)"/>
<path d="M0 0 C1.03713135 0.00394775 2.0742627 0.00789551 3.14282227 0.01196289 C24.27796049 0.40296049 24.27796049 0.40296049 29.3125 5.4375 C29.39976223 7.21821246 29.41949041 9.0023314 29.41015625 10.78515625 C29.40532227 12.40454102 29.40532227 12.40454102 29.40039062 14.05664062 C29.38782227 15.76110352 29.38782227 15.76110352 29.375 17.5 C29.37048828 18.64017578 29.36597656 19.78035156 29.36132812 20.95507812 C29.34949747 23.78260351 29.3330141 26.6100264 29.3125 29.4375 C27.0025 29.4375 24.6925 29.4375 22.3125 29.4375 C21.879375 28.261875 21.44625 27.08625 21 25.875 C20.7215625 25.14539063 20.443125 24.41578125 20.15625 23.6640625 C19.41270372 21.70192648 18.70360982 19.72680855 18 17.75 C15.30106258 12.45208581 12.10394248 10.09436224 6.5625 8.0625 C-0.46248364 6.66822844 -7.6108601 7.56134842 -13.87109375 11.08984375 C-20.23692978 15.81288338 -23.52430384 22.74101874 -24.6875 30.4375 C-25.66427346 42.60646939 -25.63860553 54.80500955 -17.54296875 64.6796875 C-12.17031037 69.76957438 -5.50150527 72.11885574 1.80859375 72.5078125 C9.02591629 72.30514198 14.8831635 70.2881874 21.328125 67.19140625 C23.94079154 66.19879869 25.72820824 66.437129 28.3125 67.4375 C28.6425 69.0875 28.9725 70.7375 29.3125 72.4375 C14.07642896 82.69254781 -2.14921152 86.18798701 -20.30078125 82.75390625 C-30.13276946 79.40240815 -37.88224748 72.79515845 -42.875 63.6875 C-48.55525888 51.54508426 -47.80028871 37.91768644 -43.6875 25.4375 C-40.22431299 16.20233463 -34.03467183 9.84512757 -25.703125 4.76171875 C-17.29070238 1.0676627 -9.12961055 -0.0900092 0 0 Z " fill="#FFFFFF" transform="translate(70.6875,158.5625)"/>
<path d="M0 0 C13.86 0 27.72 0 42 0 C42 1.32 42 2.64 42 4 C41.28972656 4.13277344 40.57945312 4.26554688 39.84765625 4.40234375 C38.92855469 4.57894531 38.00945313 4.75554687 37.0625 4.9375 C36.14597656 5.11152344 35.22945313 5.28554687 34.28515625 5.46484375 C32.04710156 5.77714988 32.04710156 5.77714988 31 7 C30.89018806 8.98328427 30.8508831 10.97050144 30.83886719 12.95678711 C30.82925964 14.23158432 30.8196521 15.50638153 30.80975342 16.81980896 C30.80490634 18.22231875 30.80062729 19.6248306 30.796875 21.02734375 C30.79112635 22.45601912 30.78536859 23.88469445 30.77960205 25.31336975 C30.76908384 28.31202556 30.76324644 31.3106545 30.75976562 34.30932617 C30.75427658 38.15765809 30.7302437 42.00563694 30.70179367 45.85385799 C30.68319957 48.80576119 30.67796345 51.75757877 30.67642975 54.7095356 C30.67339576 56.12856542 30.66534221 57.54759347 30.65224457 58.96656609 C30.63525192 60.9489128 30.63889924 62.93140428 30.64355469 64.91381836 C30.63990906 66.04331406 30.63626343 67.17280975 30.63250732 68.33653259 C30.8144162 69.65494896 30.8144162 69.65494896 31 71 C34.68734758 73.45823172 37.69699971 74.01242616 42 75 C42 76.32 42 77.64 42 79 C28.14 79 14.28 79 0 79 C0.33 77.35 0.66 75.7 1 74 C1.63808594 73.86722656 2.27617187 73.73445313 2.93359375 73.59765625 C4.17302734 73.33275391 4.17302734 73.33275391 5.4375 73.0625 C6.67306641 72.80146484 6.67306641 72.80146484 7.93359375 72.53515625 C9.97661204 72.19247006 9.97661204 72.19247006 11 71 C11.12369325 69.0064857 11.1779639 67.0086353 11.20532227 65.01147461 C11.22526749 63.73022202 11.24521271 62.44896942 11.26576233 61.12889099 C11.28274797 59.72004316 11.29962673 58.31119405 11.31640625 56.90234375 C11.33696915 55.46887095 11.35796544 54.03540431 11.37937927 52.60194397 C11.43466859 48.8224688 11.48404745 45.0429383 11.53222656 41.2633667 C11.58239165 37.40925145 11.63810371 33.55521691 11.69335938 29.70117188 C11.80102482 22.13418091 11.90193862 14.56712263 12 7 C6.06 5.515 6.06 5.515 0 4 C0 2.68 0 1.36 0 0 Z " fill="#FFFEFA" transform="translate(474,161)"/>
<path d="M0 0 C3.73325038 2.51422985 4.74796824 4.13364082 6 8.4375 C6 12.53094236 5.22004022 14.59065251 3 18 C-1.24629573 20.83086382 -5.0161657 20.76307511 -10 20 C-13.73325038 17.48577015 -14.74796824 15.86635918 -16 11.5625 C-16 7.46905764 -15.22004022 5.40934749 -13 2 C-8.75370427 -0.83086382 -4.9838343 -0.76307511 0 0 Z " fill="#FFFFFF" transform="translate(628,221)"/>
</svg>
